<svg xmlns="http://www.w3.org/2000/svg" viewBox="0 0 100 100" fill="none">
  <!-- Elefante stilizzato di profilo con proboscide a destra -->
  <!-- Corpo principale -->
  <ellipse cx="45" cy="60" rx="25" ry="20" fill="currentColor" opacity="0.9"/>
  
  <!-- Testa -->
  <ellipse cx="30" cy="50" rx="18" ry="22" fill="currentColor"/>
  
  <!-- Proboscide (a destra) -->
  <path d="M 12 50 Q 5 45 3 40 Q 2 35 4 30 Q 6 25 10 28 Q 12 30 12 35 Q 12 40 14 45 Q 15 48 12 50 Z" fill="currentColor"/>
  
  <!-- Orecchio -->
  <ellipse cx="20" cy="40" rx="12" ry="15" fill="currentColor" opacity="0.7"/>
  
  <!-- Occhio -->
  <circle cx="25" cy="48" r="3" fill="white"/>
  <circle cx="25" cy="48" r="1.5" fill="currentColor"/>
  
  <!-- Zanna -->
  <path d="M 8 45 L 5 35 L 8 40 Z" fill="currentColor" opacity="0.8"/>
  
  <!-- Gamba anteriore -->
  <ellipse cx="35" cy="75" rx="6" ry="8" fill="currentColor"/>
  
  <!-- Gamba posteriore -->
  <ellipse cx="55" cy="75" rx="6" ry="8" fill="currentColor"/>
  
  <!-- Coda -->
  <path d="M 68 60 Q 75 55 78 50" stroke="currentColor" stroke-width="3" stroke-linecap="round" fill="none"/>
  <circle cx="78" cy="50" r="2" fill="currentColor"/>
</svg>
